
<svg width="160" height="160" viewBox="0 0 160 160" xmlns="http://www.w3.org/2000/svg">
  <defs>
    <linearGradient id="g" x1="0" y1="0" x2="1" y2="1">
      <stop offset="0" stop-color="#a78bfa"/>
      <stop offset="1" stop-color="#ec4899"/>
    </linearGradient>
    <filter id="glow" x="-50%" y="-50%" width="200%" height="200%">
      <feGaussianBlur stdDeviation="6" result="b"/>
      <feMerge><feMergeNode in="b"/><feMergeNode in="SourceGraphic"/></feMerge>
    </filter>
  </defs>
  <rect width="160" height="160" rx="28" fill="#0b0714"/>
  <g filter="url(#glow)">
    <path d="M50 105c0 15 13 25 30 25 14 0 28-7 33-18 3-6 0-10-6-10h-12c-5 0-7 3-9 6-2 3-5 5-10 5-7 0-11-3-11-8 0-5 5-8 14-10l14-3c20-4 31-14 31-29 0-20-18-33-43-33-23 0-41 12-41 28 0 6 4 10 10 10h10c5 0 8-3 9-7 2-6 8-10 17-10 10 0 17 5 17 12 0 6-5 10-15 12l-18 4c-22 5-31 14-31 26z" fill="url(#g)"/>
  </g>
</svg>
